<?xml version="1.0" encoding="utf-8"?>
<!-- Generator: Adobe Illustrator 21.1.0, SVG Export Plug-In . SVG Version: 6.00 Build 0)  -->
<svg version="1.1" id="Слой_1" xmlns="http://www.w3.org/2000/svg" xmlns:xlink="http://www.w3.org/1999/xlink" x="0px" y="0px"
	 viewBox="0 0 283.5 283.5" style="enable-background:new 0 0 283.5 283.5;" xml:space="preserve">
<g>
	<path d="M17.9,180.7V67.2h15.4V172h43.1l-1.1,8.6H17.9z"/>
	<path d="M168.5,180.7l-14.2-41.6l-43.7,0.6l-15.3,41H84l45-112.5l13.3-3.9l42.1,116.4H168.5z M152,131.7l-18.8-53l-19.7,53H152z"/>
	<path d="M272.7,150c0,5-0.8,9.5-2.3,13.4c-1.5,3.9-3.9,7.3-7.1,10c-3.2,2.8-7.4,4.9-12.5,6.3c-8.5,2.4-17.4,2.3-26.2,2.1
		c-2.9-0.1-5.8-0.2-8.8-0.3c-3-0.1-5.9-0.3-8.8-0.6c-2.9-0.2-5.5-0.4-7.9-0.7V68c7.8-0.9,15.6-1.3,23.4-1.4c7.4-0.1,14.7-0.1,22,1.5
		c4.8,1,8.9,2.6,12.3,4.8c3.4,2.1,6,4.9,7.8,8.4c3.5,6.6,3.7,15.6,0.9,22.4c-1.2,3-2.8,5.5-4.9,7.6c-2,2.1-4.4,3.9-7,5.3
		c-2.6,1.4-5.3,2.4-8,3v0.3c4.6,1,8.6,2.4,12,4.3c3.4,1.9,6.2,4.1,8.4,6.7c2.2,2.6,3.9,5.5,5,8.8C272.1,142.9,272.7,146.4,272.7,150
		z M251.4,95.2c0-3.7-0.6-6.8-1.7-9.4c-1.1-2.6-2.8-4.7-4.9-6.4c-2.1-1.7-4.7-2.9-7.7-3.7c-4.7-1.2-9.7-1.3-14.5-1.1
		c-1.2,0-2.2,0.1-3.2,0.2c-0.9,0.1-1.8,0.1-2.5,0.2c-0.7,0.1-1.5,0.1-2.3,0.2v41.2h14.7c3,0,5.8-0.3,8.3-0.8
		c2.5-0.6,4.6-1.3,6.3-2.2c0.8-0.4,1.7-1.1,2.5-1.9c0.9-0.8,1.7-2,2.4-3.4c0.7-1.4,1.3-3.2,1.8-5.3
		C251.2,100.7,251.4,98.2,251.4,95.2z M256.6,149.5c0-4.5-0.8-8.3-2.3-11.5c-1.5-3.2-3.5-5.8-6.1-7.8c-2.5-2-5.5-3.4-8.9-4.3
		c-3.4-0.9-7-1.3-10.8-1.3h-14v48c1.6,0.1,3.8,0.4,6.5,0.6c4.7,0.4,9.4,0.5,14,0.2c1.8-0.1,3.5-0.3,5.2-0.6c1.7-0.3,3.2-0.6,4.6-0.9
		c1.4-0.4,2.5-0.8,3.4-1.3c1-0.5,1.9-1.2,2.9-2.1c1-0.9,1.8-2.1,2.7-3.8c0.8-1.6,1.5-3.7,2-6.1C256.4,156.2,256.6,153.2,256.6,149.5
		z"/>
</g>
</svg>
